<?xml version="1.0" encoding="UTF-8" standalone="no"?>
<!-- Created with Inkscape (http://www.inkscape.org/) -->

<svg
   xmlns:dc="http://purl.org/dc/elements/1.1/"
   xmlns:cc="http://creativecommons.org/ns#"
   xmlns:rdf="http://www.w3.org/1999/02/22-rdf-syntax-ns#"
   xmlns:svg="http://www.w3.org/2000/svg"
   xmlns="http://www.w3.org/2000/svg"
   xmlns:sodipodi="http://sodipodi.sourceforge.net/DTD/sodipodi-0.dtd"
   xmlns:inkscape="http://www.inkscape.org/namespaces/inkscape"
   width="127.78441mm"
   height="75.018051mm"
   viewBox="0 0 127.78441 75.018051"
   version="1.1"
   id="svg8"
   inkscape:version="0.92.4 (5da689c313, 2019-01-14)"
   sodipodi:docname="logo.svg">
  <defs
     id="defs2" />
  <sodipodi:namedview
     id="base"
     pagecolor="#ffffff"
     bordercolor="#666666"
     borderopacity="1.0"
     inkscape:pageopacity="0.0"
     inkscape:pageshadow="2"
     inkscape:zoom="1.4"
     inkscape:cx="292.34188"
     inkscape:cy="136.25253"
     inkscape:document-units="mm"
     inkscape:current-layer="layer1"
     showgrid="false"
     inkscape:window-width="1440"
     inkscape:window-height="847"
     inkscape:window-x="-8"
     inkscape:window-y="-8"
     inkscape:window-maximized="1" />
  <metadata
     id="metadata5">
    <rdf:RDF>
      <cc:Work
         rdf:about="">
        <dc:format>image/svg+xml</dc:format>
        <dc:type
           rdf:resource="http://purl.org/dc/dcmitype/StillImage" />
        <dc:title></dc:title>
      </cc:Work>
    </rdf:RDF>
  </metadata>
  <g
     inkscape:label="Layer 1"
     inkscape:groupmode="layer"
     id="layer1"
     transform="translate(-6.3915275,-8.2946192)">
    <g
       id="g4627">
      <g
         transform="translate(5.704524,8.9958336)"
         style="fill:#b7c4c8"
         id="g4573">
        <g
           id="g4529"
           style="fill:#b7c4c8"
           transform="matrix(0.91965611,0,0,1,-9.8516338,-6.2366075)">
          <path
             style="fill:#b7c4c8;stroke-width:0.0978744"
             d="m 65.28409,80.534338 c -3.847783,-0.398019 -6.896456,-1.183174 -10.281368,-2.647864 -0.76941,-0.332934 -1.877301,-0.85776 -2.461981,-1.166283 -0.584679,-0.308523 -1.866818,-0.984697 -2.849196,-1.50261 -2.944123,-1.552148 -5.771647,-2.558777 -8.689345,-3.0935 -1.955387,-0.358362 -3.111874,-0.459312 -5.261881,-0.459312 -2.617924,0 -4.672074,0.243462 -7.192846,0.852513 -2.090174,0.505011 -4.981821,1.547027 -7.045603,2.538909 -0.556234,0.267334 -1.099318,0.473111 -1.206853,0.457282 -0.185774,-0.02735 -0.196835,-0.108259 -0.221964,-1.62356 -0.02414,-1.45542 -0.01057,-1.609547 0.155257,-1.763768 0.530472,-0.49335 4.582542,-2.061716 6.919213,-2.678104 2.868553,-0.756692 5.312769,-1.076599 8.254878,-1.080425 3.890909,-0.0051 7.238241,0.56513 10.89586,1.85602 1.950717,0.68847 3.205626,1.254917 5.870775,2.649981 2.864182,1.499246 4.158798,2.08251 5.979958,2.694152 2.316329,0.777946 4.168678,1.204115 6.36271,1.463868 1.367843,0.16194 4.418231,0.16284 5.84117,0.0017 2.906801,-0.329128 6.094443,-1.194493 8.811109,-2.391993 0.514559,-0.226816 1.012652,-0.397188 1.106873,-0.378602 0.153462,0.03027 0.174197,0.188739 0.198988,1.520826 0.01522,0.81787 0.0049,1.581965 -0.02297,1.697991 -0.05713,0.23792 -0.899395,0.638356 -2.756326,1.310429 -3.379172,1.223013 -6.016379,1.701105 -9.654827,1.750295 -1.300988,0.01759 -2.53922,0.014 -2.751626,-0.008 z M 11.558375,72.167386 c -0.131964,-0.253397 -0.132114,-3.529675 -1.74e-4,-3.783028 0.153953,-0.29562 2.391378,-1.796893 4.857974,-3.259615 9.773603,-5.795865 19.819377,-7.197372 29.123794,-4.063122 2.356917,0.793942 3.818165,1.454538 6.661831,3.011659 2.159208,1.182328 3.746777,1.912464 5.58718,2.569591 8.231532,2.939118 16.732536,1.936442 24.487606,-2.888263 2.901681,-1.805239 3.514857,-2.216842 4.955248,-3.326274 0.832417,-0.641153 1.563147,-1.165772 1.623842,-1.16582 0.196482,-1.99e-4 0.227563,0.284479 0.227563,2.084007 0,1.739756 -0.0041,1.775242 -0.239487,2.062696 -0.131718,0.160869 -0.968067,0.803722 -1.858554,1.428564 -5.373565,3.770553 -10.34525,5.896291 -15.763389,6.739934 -1.292837,0.201304 -1.851262,0.23279 -4.103302,0.231355 -2.232625,-0.0014 -2.821608,-0.03487 -4.103301,-0.233016 -4.144985,-0.640803 -7.891974,-1.995698 -12.116808,-4.381386 -2.45556,-1.38661 -3.992046,-2.104464 -5.927486,-2.76935 -6.874266,-2.361536 -13.961664,-2.044206 -21.347401,0.955801 -4.107232,1.668313 -8.436756,4.183468 -11.392695,6.618371 -0.504181,0.41531 -0.539058,0.424018 -0.672441,0.167896 z M 63.401399,62.593685 C 59.694438,62.107551 56.122524,60.879718 52.763482,58.936938 48.04873,56.210055 44.224096,54.832193 39.439889,54.136984 c -1.493295,-0.216995 -6.064784,-0.249863 -7.609774,-0.05471 -3.57703,0.451821 -7.127851,1.440559 -10.53766,2.934245 -0.826663,0.362124 -1.571702,0.658408 -1.655641,0.658408 -0.227637,0 -1.20689,-1.579007 -1.622405,-2.616066 -0.461021,-1.150634 -0.780398,-2.7285 -0.74296,-3.670539 l 0.02815,-0.708317 14.264792,-0.02513 14.264794,-0.02513 0.02435,-22.001431 0.02435,-22.0014308 1.435146,-0.027522 c 0.976122,-0.018719 1.477928,0.00897 1.568909,0.086563 0.113247,0.096587 0.133764,3.4753038 0.133764,22.0289528 v 21.914868 l 14.265007,0.02513 14.265007,0.02513 0.03038,0.545703 c 0.04063,0.729794 -0.221024,2.289315 -0.553351,3.298056 -1.339544,4.066036 -4.599886,7.049277 -8.713069,7.972533 -0.963923,0.216365 -3.601923,0.268708 -4.908285,0.09739 z M 17.372011,47.984996 c -0.351364,-0.145701 0.127772,-3.909828 0.90728,-7.127649 1.597056,-6.592673 4.970279,-14.206777 9.142889,-20.637501 3.740139,-5.76421 8.189392,-10.166831 12.591274,-12.4593035 1.339217,-0.6974563 2.969612,-1.2709007 3.133761,-1.1022109 0.08497,0.087318 0.0035,0.6003064 -0.3375,2.1254155 -1.045902,4.6776299 -1.742606,9.5046759 -2.158989,14.9583649 -0.203251,2.66212 -0.234159,9.743915 -0.05196,11.90625 0.441964,5.245389 1.175311,8.840944 2.345303,11.498886 0.212954,0.483781 0.253473,0.666374 0.170637,0.768945 -0.09048,0.112036 -2.240286,0.133205 -12.865317,0.12668 -7.016179,-0.0043 -12.810996,-0.03035 -12.877373,-0.05788 z m 34.269809,-0.05335 c -0.08895,-0.09141 -0.115858,-3.180102 -0.115858,-13.298427 0,-11.999876 0.01385,-13.184826 0.154768,-13.240397 0.221286,-0.08727 25.870534,26.27143 25.785618,26.498838 -0.05407,0.144814 -1.207132,0.159048 -12.88403,0.159048 -9.845989,0 -12.851549,-0.02765 -12.940498,-0.119062 z"
             id="path4543"
             inkscape:connector-curvature="0" />
          <path
             style="fill:#b7c4c8;stroke-width:0.0978744"
             d="M 64.366882,80.34556 C 61.458207,80.0123 58.71565,79.309478 55.894898,78.174488 54.076382,77.442767 53.344759,77.088635 50.994946,75.80273 46.358163,73.265309 42.705855,72.075548 38.264682,71.65577 c -1.687927,-0.159542 -5.033213,-0.06252 -6.724212,0.19502 -3.363975,0.512332 -6.589798,1.506131 -9.85175,3.035087 -0.718976,0.337001 -1.359815,0.594716 -1.424087,0.572699 -0.08491,-0.02909 -0.116859,-0.471151 -0.116859,-1.616975 0,-1.855724 -0.169589,-1.608029 1.656372,-2.419235 3.286592,-1.460111 6.853847,-2.431376 10.460436,-2.84809 1.38051,-0.159508 5.112862,-0.160475 6.468734,-0.0017 3.537905,0.414357 6.82698,1.300406 9.958604,2.682761 0.735649,0.324728 2.575775,1.231485 4.089169,2.015016 3.63311,1.880972 6.007871,2.776341 8.978989,3.385394 2.283063,0.468008 2.815229,0.515684 5.744623,0.514647 2.442569,-8.93e-4 2.974619,-0.02976 4.168939,-0.226431 2.478539,-0.40814 4.692876,-1.056069 7.253382,-2.122388 0.653513,-0.272154 1.252014,-0.469663 1.330001,-0.438909 0.118003,0.04654 0.137333,0.318498 0.115197,1.620756 l -0.0266,1.56484 -0.627564,0.313435 c -2.237346,1.117436 -6.221337,2.186887 -9.351275,2.510228 -1.330501,0.137448 -4.617171,0.112038 -5.9999,-0.04639 z M 11.554978,70.383041 c 0,-0.977803 0.02741,-1.851225 0.06091,-1.940937 0.11751,-0.314698 3.617403,-2.584808 6.115351,-3.966557 9.219343,-5.099712 18.455195,-6.287253 27.277716,-3.507354 1.989176,0.626772 3.601935,1.318915 5.937719,2.548276 4.383406,2.307056 5.900634,2.981982 8.28154,3.683973 2.953,0.87067 4.751479,1.13099 7.842021,1.135095 2.461554,0.0033 3.257673,-0.07031 5.358429,-0.495211 2.921173,-0.590844 6.484173,-1.977228 9.178398,-3.57137 1.722755,-1.019333 4.654704,-2.975375 5.789522,-3.862464 0.737177,-0.576252 1.385662,-1.032236 1.441078,-1.013299 0.06394,0.02185 0.11037,0.715298 0.127063,1.897584 l 0.02631,1.863153 -0.339886,0.32942 c -0.186937,0.18118 -1.018409,0.804302 -1.847715,1.384714 -5.432616,3.80216 -10.461859,5.89153 -16.16091,6.713953 -1.419174,0.204799 -5.91953,0.17428 -7.385942,-0.05009 -4.445441,-0.680174 -7.80429,-1.890376 -12.467193,-4.491962 -2.218328,-1.237679 -3.829276,-1.990872 -5.604406,-2.620321 -8.114169,-2.877231 -16.55561,-1.976046 -25.56822,2.729595 -2.777068,1.449956 -5.556042,3.22248 -7.168518,4.572325 -0.888747,0.743992 -0.893262,0.737225 -0.893262,-1.338524 z m 51.60505,-7.902587 c -3.693322,-0.516278 -7.080225,-1.707665 -10.489905,-3.689961 -4.5989,-2.673675 -8.532713,-4.071699 -13.357518,-4.747078 -1.529882,-0.214155 -5.841546,-0.249723 -7.337668,-0.06053 -3.783529,0.478446 -7.179657,1.416164 -10.717995,2.959389 -1.124001,0.490227 -1.563526,0.639269 -1.678078,0.569034 -0.259302,-0.158988 -1.14363,-1.604273 -1.461051,-2.387845 -0.394081,-0.972806 -0.637243,-1.975624 -0.765366,-3.156422 -0.07759,-0.715032 -0.07624,-0.999861 0.0052,-1.100712 0.09201,-0.113928 2.420484,-0.140147 14.315055,-0.161192 l 14.205172,-0.02513 0.04827,-21.976953 0.04827,-21.976954 h 1.448224 1.448224 l 0.04827,21.976954 0.04827,21.976953 14.240869,0.04961 14.24087,0.04961 0.029,0.572134 c 0.03661,0.722289 -0.201955,2.159414 -0.521047,3.138763 -0.992224,3.045302 -3.227728,5.633631 -6.050688,7.005658 -1.038056,0.50452 -2.24699,0.883335 -3.298851,1.033682 -0.996547,0.142441 -3.256111,0.117544 -4.447561,-0.04901 z M 17.365178,47.824087 c -0.184899,-0.228954 0.116832,-2.78857 0.622419,-5.280021 1.855419,-9.143229 7.364427,-20.455984 13.383771,-27.483595 2.695983,-3.147572 5.75933,-5.7079583 8.601963,-7.1896361 1.335253,-0.6959799 2.926703,-1.2680842 3.0824,-1.1080806 0.07635,0.078468 0.0063,0.5411051 -0.253408,1.6730103 -1.074166,4.6819674 -1.855264,10.1102664 -2.245319,15.6040034 -0.193114,2.719922 -0.222317,9.070833 -0.05201,11.310938 0.398238,5.238169 1.157101,9.071473 2.324514,11.741997 0.163278,0.373509 0.272556,0.719534 0.24284,0.768945 -0.03182,0.05291 -5.30574,0.08984 -12.829155,0.08984 -10.282932,0 -12.795198,-0.02485 -12.878015,-0.127401 z m 34.321698,0.06125 c -0.118987,-0.122277 -0.07576,-26.307092 0.04355,-26.382871 0.144572,-0.09182 25.718575,26.189546 25.629224,26.338117 -0.07374,0.122613 -25.553788,0.167033 -25.672774,0.04475 z"
             id="path4541"
             inkscape:connector-curvature="0" />
          <path
             style="fill:#b7c4c8;stroke-width:0.0978744"
             d="m 65.86338,80.429843 c -3.14319,-0.260749 -5.269332,-0.67578 -7.842723,-1.530932 -2.429078,-0.807195 -4.18555,-1.593099 -6.977437,-3.121932 -3.96737,-2.172527 -6.828881,-3.230981 -10.429538,-3.857821 -6.190415,-1.077692 -12.4046,-0.103946 -19.090905,2.991494 -0.976672,0.452153 -1.216065,0.529584 -1.286052,0.415976 -0.09469,-0.153708 -0.119783,-2.591059 -0.03021,-2.93423 0.09947,-0.381088 3.567728,-1.840309 6.16862,-2.595362 2.863483,-0.831284 5.191623,-1.192818 8.219498,-1.276394 2.412612,-0.06659 4.151147,0.04982 6.300522,0.421896 3.818781,0.661062 6.699079,1.706954 11.417235,4.145818 3.710329,1.917908 5.265477,2.553275 8.047736,3.287958 6.172599,1.629936 12.382757,1.125911 18.572698,-1.507384 1.03582,-0.440654 1.307092,-0.522196 1.374334,-0.413115 0.09317,0.15115 0.11635,2.592023 0.02783,2.931174 -0.06689,0.256285 -0.969033,0.677139 -2.934094,1.368771 -3.708903,1.305401 -8.173239,1.953173 -11.537518,1.674083 z m -54.189841,-10.16626 0.02626,-1.920185 0.675838,-0.479692 c 3.70916,-2.632666 8.15439,-4.978517 11.971986,-6.317896 3.632437,-1.274416 6.656569,-1.84833 10.2942,-1.953611 4.031015,-0.116668 7.525704,0.422849 11.29148,1.743197 2.27572,0.797908 3.462813,1.348172 6.55814,3.039953 6.894485,3.768247 13.523681,4.900656 20.223096,3.454542 2.038252,-0.439971 4.248519,-1.193688 6.279405,-2.141323 2.529581,-1.180332 6.487721,-3.671235 8.896315,-5.598552 0.432443,-0.346034 0.834325,-0.629153 0.893071,-0.629153 0.07429,0 0.106811,0.571694 0.106811,1.877425 v 1.877424 l -0.406347,0.35744 c -0.692148,0.60884 -3.917493,2.773777 -5.338275,3.583191 -9.904627,5.642633 -19.659329,6.070476 -29.609079,1.298663 -0.513832,-0.246431 -1.665171,-0.860615 -2.558529,-1.364854 -4.224879,-2.384656 -7.269555,-3.478987 -11.47221,-4.123391 -1.786823,-0.273978 -5.974378,-0.246086 -7.868684,0.05241 -3.385826,0.533526 -6.335525,1.425893 -9.703101,2.935464 -3.100001,1.389626 -6.865603,3.632313 -9.207089,5.483486 -0.444064,0.351076 -0.868626,0.662468 -0.94347,0.691982 -0.11473,0.04524 -0.13196,-0.247593 -0.109819,-1.866522 z m 52.693343,-7.696262 c -4.223162,-0.459718 -7.80292,-1.603838 -11.299797,-3.611508 -4.598101,-2.63992 -8.275554,-4.051674 -12.35453,-4.742836 -3.656749,-0.619619 -7.827714,-0.565964 -11.436638,0.147118 -2.681997,0.529933 -5.730946,1.50046 -8.242325,2.623659 -0.710602,0.317812 -1.351082,0.554543 -1.423288,0.526068 -0.07221,-0.02847 -0.35972,-0.415972 -0.638923,-0.861107 -0.889913,-1.418803 -1.47865,-3.215816 -1.592839,-4.861857 -0.04836,-0.697052 -0.03295,-0.89569 0.07491,-0.965864 0.07776,-0.05059 6.190352,-0.08899 14.304248,-0.08986 l 14.168459,-0.0015 V 28.822112 c 0,-16.906875 0.02645,-21.9346777 0.115858,-22.0265629 0.160855,-0.1653048 2.600425,-0.1653048 2.76128,0 0.08941,0.091885 0.115858,5.1196879 0.115858,22.0265629 V 50.729613 H 63.09993 c 12.733108,0 14.193541,0.01581 14.305842,0.154866 0.169393,0.209752 -0.0221,1.915238 -0.347982,3.099169 -0.315646,1.146753 -1.16655,2.904185 -1.871873,3.866112 -2.479391,3.381408 -6.59754,5.177097 -10.819038,4.717561 z M 17.453609,47.860203 c -0.166835,-0.108544 -0.101446,-1.197179 0.186085,-3.098097 0.784074,-5.183639 2.620706,-10.748961 5.49617,-16.654369 3.143619,-6.456125 6.420975,-11.287383 10.301013,-15.185058 1.569248,-1.576382 2.918872,-2.706641 4.524053,-3.7887216 2.063227,-1.3908581 4.882692,-2.6487352 5.105728,-2.277872 0.02659,0.044209 -0.05578,0.5018555 -0.183029,1.0169922 -1.014885,4.1083584 -1.877045,9.8041034 -2.31948,15.3233314 -0.209312,2.611086 -0.291988,8.731842 -0.151442,11.211719 0.307941,5.433518 1.063806,9.545631 2.30422,12.535591 0.28326,0.682781 0.319591,0.843276 0.207414,0.916254 -0.179649,0.116874 -25.291099,0.117101 -25.470732,1.99e-4 z m 34.33786,-0.01588 c -0.159557,-0.0955 -0.168959,-0.826588 -0.168959,-13.137611 0,-9.499462 0.02928,-13.055077 0.107916,-13.105021 0.0642,-0.04078 5.275639,5.242975 12.865057,13.04357 10.117447,10.398965 12.727174,13.131878 12.612319,13.20765 -0.20482,0.135121 -25.190345,0.126678 -25.416333,-0.0086 z"
             id="path4539"
             inkscape:connector-curvature="0" />
          <path
             style="fill:#b7c4c8;stroke-width:0.0978744"
             d="m 65.090994,80.337533 c -0.159305,-0.02235 -0.702389,-0.08812 -1.206854,-0.14615 -2.215735,-0.254872 -5.029381,-0.971955 -7.417349,-1.890377 -1.853569,-0.712891 -3.139356,-1.322814 -5.440146,-2.580575 -4.12698,-2.256074 -7.164393,-3.338293 -11.181812,-3.984041 -1.782144,-0.286455 -6.197174,-0.308549 -7.966444,-0.03987 -3.593441,0.545706 -6.873194,1.538596 -10.175807,3.080555 -0.658249,0.307331 -1.255642,0.558783 -1.327538,0.558783 -0.104301,0 -0.130722,-0.310432 -0.130722,-1.535874 V 72.26411 l 0.362056,-0.189638 c 0.622888,-0.326256 2.348105,-1.062799 3.355052,-1.432365 2.458526,-0.902318 4.875171,-1.508718 7.446717,-1.868576 2.192559,-0.306824 5.989044,-0.306824 8.181603,0 4.417423,0.618167 7.572576,1.698566 12.660324,4.335192 4.028855,2.087875 6.295604,2.960135 9.376601,3.608181 2.082708,0.438068 3.679558,0.603329 5.829751,0.603329 3.871846,0 7.268221,-0.686532 11.072416,-2.238142 0.861948,-0.351561 1.612477,-0.639202 1.667841,-0.639202 0.06552,0 0.100663,0.536089 0.100663,1.535343 v 1.535343 l -0.295495,0.157033 c -1.07185,0.569606 -3.958937,1.557179 -5.83532,1.996061 -2.211993,0.517382 -3.399665,0.648255 -6.179089,0.680893 -1.433742,0.01684 -2.737144,0.01232 -2.896448,-0.01003 z M 11.651526,70.282794 c 0,-1.561475 0.02065,-1.800189 0.168959,-1.953473 0.212655,-0.219783 1.921885,-1.362493 3.499875,-2.339851 5.795676,-3.589662 11.185522,-5.565374 17.04077,-6.246497 1.356801,-0.157832 5.212392,-0.155543 6.468734,0.0038 4.878437,0.618895 8.440558,1.820291 13.32494,4.494103 4.574647,2.504255 8.389773,3.750264 12.694819,4.146088 4.73531,0.435386 9.794188,-0.555677 14.592884,-2.85883 2.21993,-1.065464 6.218665,-3.607807 8.32591,-5.293504 0.527094,-0.421651 0.995113,-0.743292 1.04004,-0.714758 0.04493,0.02853 0.08168,0.855434 0.08168,1.837556 v 1.785675 L 88.576356,63.4401 c -0.439869,0.416339 -2.785769,2.052478 -4.223987,2.946001 -4.662417,2.896625 -9.658049,4.687427 -14.426598,5.171553 -1.335547,0.135592 -4.268624,0.138173 -5.572802,0.0049 -4.525022,-0.462389 -8.744601,-1.892939 -13.443131,-4.557578 -1.776205,-1.007325 -2.964406,-1.597385 -4.380777,-2.175491 -8.171891,-3.33544 -16.813571,-2.764687 -25.940136,1.713256 -2.650192,1.300315 -5.620591,3.116305 -7.602499,4.647881 -0.619891,0.479039 -1.173837,0.87098 -1.23099,0.87098 -0.07032,0 -0.103915,-0.575024 -0.103915,-1.77885 z m 51.508502,-7.901559 c -3.666514,-0.512531 -7.089341,-1.711314 -10.38636,-3.637638 -4.725961,-2.761199 -9.039845,-4.26305 -13.943804,-4.854445 -1.378871,-0.166285 -5.492951,-0.167753 -6.806653,-0.0024 -3.815748,0.4802 -7.263427,1.425355 -10.742483,2.944971 -0.837168,0.365667 -1.582093,0.641199 -1.65539,0.612294 -0.213466,-0.08418 -1.087729,-1.522574 -1.412074,-2.323236 -0.163726,-0.404165 -0.382981,-1.077542 -0.487234,-1.496393 -0.213511,-0.857809 -0.419882,-2.54666 -0.329547,-2.696869 0.0389,-0.06467 4.944743,-0.09866 14.242836,-0.09866 13.923999,0 14.185329,-0.0035 14.283446,-0.191915 0.06803,-0.130623 0.09994,-7.165127 0.09994,-22.026563 V 6.7757053 h 1.39995 1.39995 V 28.683206 c 0,16.906875 0.02645,21.934677 0.115858,22.026563 0.08906,0.09152 3.397328,0.119062 14.303183,0.119062 h 14.187326 l -0.05549,0.967383 c -0.145179,2.530965 -1.366514,5.279754 -3.193956,7.188453 -1.722102,1.798677 -3.885139,2.969646 -6.277569,3.398391 -1.053872,0.188863 -3.384221,0.187967 -4.741933,-0.0018 z M 17.411738,47.709413 C 17.296811,47.401635 17.610541,44.932825 18.036615,42.792112 18.96661,38.11957 20.679901,33.228734 23.180648,28.107737 28.075609,18.083901 33.908641,11.11772 40.084057,7.9206033 41.228762,7.3279701 42.889708,6.6979735 43.002325,6.8137048 43.034204,6.8464657 42.880138,7.67649 42.659957,8.6582032 39.451337,22.96434 39.480567,39.64237 42.727295,47.07887 c 0.157782,0.361393 0.261409,0.683251 0.230282,0.715239 -0.03113,0.03199 -5.779672,0.05816 -12.774545,0.05816 -10.979492,0 -12.725243,-0.01953 -12.771294,-0.142856 z m 34.371686,0.07671 c -0.0354,-0.03638 -0.06437,-5.929974 -0.06437,-13.096876 0,-10.366386 0.02471,-13.030729 0.120824,-13.030729 0.157793,0 25.36792,25.907709 25.36792,26.069869 0,0.0984 -2.60809,0.123882 -12.680006,0.123882 -6.974004,0 -12.708972,-0.02977 -12.744372,-0.06615 z"
             id="path4537"
             inkscape:connector-curvature="0" />
          <path
             style="fill:#b7c4c8;stroke-width:0.0978744"
             d="m 65.718558,80.331492 c -2.844081,-0.275815 -4.292954,-0.531073 -6.413632,-1.129936 -2.716685,-0.767172 -4.990453,-1.735191 -8.203502,-3.492507 -2.34812,-1.28426 -4.112409,-2.093686 -5.887076,-2.700888 -7.55554,-2.585127 -15.249646,-2.0447 -23.321691,1.638099 -0.819216,0.37376 -1.525225,0.656864 -1.56891,0.629118 -0.04368,-0.02774 -0.07943,-0.694183 -0.07943,-1.480973 0,-1.685625 -0.162608,-1.463349 1.662138,-2.272052 4.442439,-1.968832 8.905238,-2.931241 13.592489,-2.931241 3.850899,0 7.074931,0.554375 10.737711,1.846359 1.991668,0.702526 3.420581,1.352125 6.20651,2.821541 4.96533,2.618923 8.674715,3.753112 13.347799,4.081254 4.303489,0.302189 9.219255,-0.61372 13.480767,-2.511746 0.471394,-0.209954 0.895,-0.35765 0.941346,-0.328215 0.14219,0.09031 0.104806,2.877334 -0.04026,3.001055 -0.218932,0.186723 -1.681516,0.794907 -3.001819,1.248242 -2.396298,0.822785 -4.803464,1.329228 -7.330271,1.542213 -1.141432,0.09621 -3.322713,0.117207 -4.122179,0.03968 z m -54.008641,-8.42736 c -0.07766,-0.207971 -0.07531,-3.154383 0.0027,-3.363241 0.11846,-0.31724 3.575002,-2.561031 6.069746,-3.940135 4.93854,-2.730043 10.036452,-4.383283 14.916708,-4.837451 1.420494,-0.132194 4.267157,-0.132708 5.696348,-0.001 3.916585,0.360859 8.249211,1.647812 11.917515,3.53995 0.481322,0.248269 1.467126,0.779117 2.190676,1.179661 3.867595,2.141032 7.809817,3.444342 11.815019,3.906079 1.298604,0.149708 4.453362,0.123698 5.886067,-0.04853 3.8287,-0.460254 7.612432,-1.749027 11.202977,-3.815833 1.947183,-1.120847 4.564041,-2.845387 5.968497,-3.93331 0.733798,-0.568419 1.374638,-1.007791 1.424087,-0.976384 0.04984,0.03165 0.08991,0.813063 0.08991,1.753328 v 1.696226 L 88.521666,63.4202 c -0.535507,0.518369 -3.807874,2.734427 -5.347996,3.621683 -4.106837,2.365924 -8.135787,3.777929 -12.531126,4.391719 -1.516707,0.211801 -5.183182,0.237808 -6.710105,0.0476 -4.456225,-0.555123 -8.414812,-1.925937 -12.937468,-4.480101 -4.222547,-2.384677 -7.441002,-3.537319 -11.537518,-4.131989 -1.68244,-0.244232 -5.747238,-0.245517 -7.385943,-0.0023 -3.621573,0.537436 -6.639015,1.429983 -10.185842,3.012928 -2.764872,1.233959 -6.525432,3.443318 -8.706541,5.115164 -0.707413,0.54224 -1.314238,1.003841 -1.3485,1.02578 -0.03426,0.02194 -0.08857,-0.03048 -0.120685,-0.116483 z m 52.512142,-9.427415 c -0.159304,-0.0243 -0.767558,-0.112267 -1.351675,-0.195471 -3.499921,-0.498545 -6.808985,-1.674512 -10.106622,-3.591664 -4.392794,-2.553846 -8.263445,-3.973101 -12.823593,-4.702038 -1.22873,-0.196412 -1.77191,-0.224117 -4.44122,-0.226523 -2.39871,-0.0022 -3.296256,0.03429 -4.248124,0.172527 -3.547306,0.515163 -6.938803,1.502897 -10.324504,3.006889 -1.398762,0.621356 -1.287527,0.650086 -1.994178,-0.51505 -0.860425,-1.41868 -1.413378,-3.256114 -1.430415,-4.753196 l -0.009,-0.79375 14.24087,-0.04961 14.24087,-0.04961 0.04827,-21.976954 0.04827,-21.9769533 h 1.351676 1.351676 l 0.04827,21.9769533 0.04827,21.976954 14.24087,0.04961 14.24087,0.04961 0.03166,0.284726 c 0.0503,0.452279 -0.163246,1.876699 -0.422602,2.818915 -0.317389,1.153036 -1.167518,2.906468 -1.880808,3.879259 -1.64189,2.239222 -4.176926,3.871141 -6.893032,4.437362 -0.675664,0.140854 -3.406039,0.263414 -3.965788,0.178014 z M 17.473807,47.688632 c -0.08689,-0.232695 0.135533,-2.328363 0.414386,-3.904332 1.089657,-6.158337 3.773581,-13.230625 7.549505,-19.89336 4.142307,-7.309228 8.814305,-12.538956 13.828336,-15.479124 1.076031,-0.6309713 2.857416,-1.4117217 3.444362,-1.5096045 0.30278,-0.050493 0.335074,-0.035585 0.284876,0.1315145 -0.150164,0.4998787 -0.662277,2.8591498 -0.97776,4.504479 -2.591545,13.515627 -2.343908,28.282424 0.592914,35.355877 0.177691,0.427977 0.298713,0.81865 0.268935,0.868164 -0.03196,0.05314 -5.234422,0.09002 -12.699295,0.09002 -11.659663,0 -12.649918,-0.01275 -12.706259,-0.163637 z m 34.365937,0.09793 c -0.09569,-0.03968 -0.120686,-2.739587 -0.120686,-13.033578 0,-7.140942 0.03519,-13.00588 0.0782,-13.033195 0.106339,-0.06754 25.436172,25.97386 25.350137,26.062275 -0.07652,0.07863 -25.118135,0.08308 -25.307646,0.0045 z"
             id="path4535"
             inkscape:connector-curvature="0" />
          <path
             style="fill:#b7c4c8;stroke-width:0.0978744"
             d="m 64.216728,80.147445 c -4.5855,-0.541985 -8.412475,-1.891983 -13.89762,-4.902503 -3.177733,-1.744099 -6.400795,-2.897124 -9.703101,-3.471211 -3.390295,-0.589383 -7.254167,-0.520685 -10.813406,0.192258 -2.621353,0.525077 -5.775721,1.596024 -8.43345,2.863262 -0.469926,0.224066 -0.893531,0.407393 -0.941346,0.407393 -0.04781,0 -0.08694,-0.663993 -0.08694,-1.475541 V 72.28556 l 1.013207,-0.464766 c 7.801982,-3.578838 15.863375,-4.16954 23.702101,-1.736782 2.077506,0.644756 4.039429,1.496176 7.169735,3.111463 4.725414,2.438388 7.259054,3.328025 11.368583,3.991852 1.593013,0.257325 6.133535,0.258613 7.723861,0.0022 2.678415,-0.431863 4.802895,-1.024512 7.203004,-2.009362 0.855212,-0.350925 1.582945,-0.638044 1.617184,-0.638044 0.03424,0 0.06225,0.665261 0.06225,1.478358 v 1.478358 l -0.844797,0.364422 c -2.750446,1.186465 -5.977817,2.034783 -8.850936,2.326475 -1.38656,0.14077 -4.941865,0.116866 -6.288337,-0.04228 z M 11.748074,70.234435 V 68.506444 L 12.11013,68.21387 c 0.452233,-0.365446 1.420961,-1.004112 3.161956,-2.084622 5.74286,-3.564181 10.899744,-5.499473 16.606303,-6.232069 1.665979,-0.213875 5.399515,-0.243725 6.951475,-0.05558 4.712883,0.571352 8.319218,1.782146 13.178839,4.424676 4.240214,2.305713 7.399022,3.434032 11.296148,4.03496 1.952856,0.301126 5.475245,0.327029 7.289394,0.05361 4.593822,-0.692371 8.466393,-2.201234 12.84092,-5.003186 2.065724,-1.323128 2.962745,-1.940753 4.045909,-2.785723 0.584969,-0.456331 1.119593,-0.851783 1.188051,-0.878779 0.09867,-0.03891 0.124469,0.31062 0.124469,1.686314 v 1.735398 l -0.398372,0.36986 c -0.610524,0.566828 -3.929211,2.783513 -5.484668,3.663431 -3.677692,2.080462 -7.716767,3.537183 -11.453924,4.130938 -1.912084,0.303791 -5.54264,0.376583 -7.475941,0.149893 -4.427797,-0.519184 -8.45725,-1.907263 -13.002267,-4.479061 -2.689298,-1.52174 -4.532368,-2.348334 -6.838403,-3.066939 -2.882438,-0.898222 -5.240725,-1.251831 -8.351425,-1.252238 -3.680512,-4.96e-4 -6.949825,0.583092 -10.691783,1.908484 -4.136654,1.465191 -9.100594,4.175298 -12.43158,6.787131 -0.450366,0.353134 -0.840967,0.642061 -0.868002,0.642061 -0.02703,0 -0.04915,-0.777597 -0.04915,-1.727991 z M 63.787592,62.373201 C 63.654838,62.35274 63.068307,62.265013 62.48419,62.17825 59.344808,61.71194 55.926248,60.468638 52.780233,58.648999 48.093902,55.93845 43.980184,54.480302 39.216057,53.841042 c -1.52007,-0.203966 -5.679666,-0.235435 -7.144572,-0.05405 -3.813293,0.472159 -7.319325,1.429598 -10.789012,2.9463 -0.80994,0.354049 -1.52359,0.643782 -1.585889,0.643851 -0.154939,1.98e-4 -0.93994,-1.232087 -1.289287,-2.023867 -0.157287,-0.356482 -0.390857,-1.020084 -0.519045,-1.474671 -0.246721,-0.874929 -0.497823,-2.681287 -0.396213,-2.850242 0.04021,-0.06686 4.756331,-0.100312 14.142781,-0.100312 7.745349,0 14.151176,-0.0271 14.235171,-0.06022 0.138619,-0.05466 0.152719,-2.073831 0.152719,-21.869619 0,-11.995168 0.02637,-21.8800202 0.0586,-21.966339 0.0494,-0.1323014 0.261628,-0.1569429 1.351676,-0.1569429 h 1.293072 V 28.745572 c 0,19.750115 0.01471,21.885765 0.151719,22.026563 0.136546,0.140323 1.566996,0.155915 14.303728,0.155915 h 14.15201 l -0.06026,0.967383 c -0.07781,1.249115 -0.435706,2.591636 -1.034529,3.880627 -1.598648,3.441163 -4.616031,5.811078 -8.286093,6.50807 -0.74141,0.140804 -3.45313,0.198794 -4.165047,0.08907 z M 17.498483,47.663453 c -0.153473,-0.255192 0.395796,-4.006036 0.914405,-6.244278 2.175674,-9.389909 7.931748,-20.642379 13.889531,-27.152454 2.605063,-2.846555 5.722315,-5.2953145 8.301258,-6.5210604 0.889587,-0.4228122 2.227503,-0.9093973 2.298858,-0.8360691 0.02497,0.02566 -0.129378,0.821758 -0.342993,1.7691073 -2.362036,10.4752742 -3.024918,22.8226962 -1.696755,31.6052712 0.320146,2.116982 0.972969,4.759364 1.527707,6.183584 0.245368,0.62995 0.446123,1.176893 0.446123,1.21543 0,0.105543 -25.274631,0.08606 -25.338134,-0.01953 z M 51.815607,34.731144 V 21.709238 l 3.21023,3.287773 c 1.765626,1.808276 7.457147,7.629727 12.647823,12.936562 5.190676,5.306834 9.437593,9.687193 9.437593,9.734132 0,0.04721 -5.651055,0.08535 -12.647823,0.08535 H 51.815607 Z"
             id="path4533"
             inkscape:connector-curvature="0" />
          <path
             style="fill:#b7c4c8;stroke-width:0.0978744"
             d="M 66.008202,80.235156 C 60.693976,79.840434 56.438079,78.506481 51.083206,75.557117 46.820793,73.20946 43.599663,72.094134 39.36088,71.498225 c -1.719932,-0.241796 -5.474617,-0.239765 -7.241121,0.0039 -3.534716,0.487601 -6.818429,1.447065 -10.137568,2.962081 -0.716871,0.327215 -1.35771,0.617324 -1.424087,0.644685 -0.09313,0.03839 -0.120685,-0.269515 -0.120685,-1.348502 V 72.36214 l 0.555152,-0.287436 c 0.776547,-0.402065 3.055598,-1.314865 4.320535,-1.73045 5.410582,-1.777606 11.09275,-2.121716 16.558029,-1.002747 3.382456,0.692528 6.203602,1.758436 10.089294,3.812018 3.692928,1.951707 6.370096,3.005703 9.302531,3.662387 2.466662,0.552381 3.392711,0.648021 6.241741,0.644634 2.816652,-0.0033 3.899016,-0.119975 6.373397,-0.686748 1.361931,-0.311959 3.859753,-1.141776 5.183335,-1.721988 0.515033,-0.225773 0.960362,-0.410495 0.98962,-0.410495 0.02926,0 0.0532,0.638461 0.0532,1.418802 v 1.418802 l -1.378034,0.558014 c -2.488477,1.007671 -5.147706,1.699763 -7.705179,2.005352 -1.325209,0.158347 -4.060599,0.263583 -5.012835,0.192854 z M 11.844622,70.182191 v -1.682396 l 0.603427,-0.439956 c 1.662865,-1.212387 5.409065,-3.440962 7.437972,-4.42477 8.010146,-3.884085 15.855266,-4.850013 23.401407,-2.881293 2.915676,0.760675 4.810212,1.538231 8.576453,3.519955 3.179372,1.672925 4.780497,2.382121 6.903201,3.057681 2.856657,0.909143 5.30057,1.289147 8.303151,1.29106 3.737145,0.0024 6.961189,-0.645035 10.617058,-2.132002 2.728761,-1.10988 7.034366,-3.674513 9.84587,-5.864689 l 1.115611,-0.869067 0.02654,1.653792 c 0.03174,1.977688 0.182135,1.714882 -1.76166,3.078359 -3.71173,2.603596 -6.960708,4.297552 -10.493684,5.471213 -8.46231,2.811194 -16.636674,1.845965 -25.193738,-2.974877 -4.685291,-2.63958 -7.966215,-3.774643 -12.444641,-4.305331 -1.091593,-0.129352 -1.8997,-0.154086 -3.668834,-0.112295 -3.115805,0.0736 -5.260152,0.415123 -8.299652,1.321846 -4.626428,1.380124 -10.323227,4.332813 -14.152421,7.335292 l -0.816061,0.639875 z M 64.559978,62.369179 C 63.56186,62.292038 61.31055,61.91441 60.2468,61.645698 57.365148,60.91777 55.619609,60.163703 51.652598,57.933025 47.658015,55.686844 43.431811,54.286709 39.022961,53.748844 c -1.616332,-0.197187 -5.301257,-0.226046 -6.806653,-0.05331 -3.758307,0.431251 -7.512075,1.451527 -11.031959,2.99849 -0.730872,0.321213 -1.384219,0.584023 -1.451884,0.584023 -0.164716,0 -0.873774,-1.121663 -1.271274,-2.011035 -0.514866,-1.15197 -1.00295,-3.336424 -0.904874,-4.049835 l 0.03293,-0.239521 14.24087,-0.04961 14.240869,-0.04961 0.04827,-21.976954 0.04827,-21.9769535 h 1.255127 1.255128 l 0.04827,21.9769535 0.04827,21.976954 14.208696,0.04961 c 7.814783,0.02728 14.234934,0.07658 14.267003,0.109539 0.108352,0.111366 -0.150436,1.993185 -0.391822,2.849199 -0.356237,1.2633 -0.74389,2.152527 -1.376914,3.158464 -1.931911,3.069994 -5.080739,4.986081 -8.700711,5.294451 -1.09156,0.09298 -1.353824,0.09647 -2.22061,0.02948 z M 17.54097,47.47959 c 0,-0.47048 0.31859,-2.89838 0.530466,-4.042556 1.656275,-8.944251 6.785476,-19.944701 12.745434,-27.334766 0.976188,-1.210427 3.132392,-3.474223 4.247612,-4.459562 1.795455,-1.586354 3.722743,-2.9172932 5.427916,-3.7483911 0.913839,-0.4454032 2.249369,-0.9514995 2.319826,-0.8790934 0.02176,0.022358 -0.114947,0.7254749 -0.303787,1.5624816 -1.063558,4.7140799 -1.777853,9.6386069 -2.199572,15.1644089 -0.170269,2.231036 -0.170547,10.572919 -3.86e-4,12.501563 0.383189,4.343945 1.086581,7.92258 2.008682,10.219531 0.186209,0.463848 0.362615,0.921494 0.392012,1.016992 0.05072,0.164759 -0.591071,0.173633 -12.557362,0.173633 -11.962724,0 -12.610841,-0.009 -12.610841,-0.174241 z m 34.339002,0.108095 c -0.09225,-0.09481 -0.07988,-25.510725 0.01245,-25.569366 0.05331,-0.03386 24.142844,24.604329 24.991886,25.561098 0.08156,0.09191 -24.914902,0.100172 -25.004332,0.0083 z"
             id="path4531"
             inkscape:connector-curvature="0" />
        </g>
        <text
           xml:space="preserve"
           style="font-style:normal;font-weight:normal;font-size:34.52674866px;line-height:1.25;font-family:sans-serif;letter-spacing:0px;word-spacing:0px;fill:#b7c4c8;fill-opacity:1;stroke:none;stroke-width:0.86316866"
           x="40.803062"
           y="24.109528"
           id="text4547"
           transform="scale(0.95711062,1.0448113)"><tspan
             sodipodi:role="line"
             id="tspan4545"
             x="40.803062"
             y="24.109528"
             style="font-style:normal;font-variant:normal;font-weight:normal;font-stretch:normal;font-family:'Freestyle Script';-inkscape-font-specification:'Freestyle Script';fill:#b7c4c8;stroke-width:0.86316866">Travel</tspan></text>
        <text
           xml:space="preserve"
           style="font-style:normal;font-weight:normal;font-size:47.37198257px;line-height:1.25;font-family:sans-serif;letter-spacing:0px;word-spacing:0px;fill:#b7c4c8;fill-opacity:1;stroke:none;stroke-width:1.18429947"
           x="68.419907"
           y="58.871964"
           id="text4551"
           transform="scale(1.0311787,0.96976402)"><tspan
             sodipodi:role="line"
             id="tspan4549"
             x="68.419907"
             y="58.871964"
             style="font-style:normal;font-variant:normal;font-weight:normal;font-stretch:normal;font-family:'Freestyle Script';-inkscape-font-specification:'Freestyle Script';fill:#b7c4c8;stroke-width:1.18429947">Blog</tspan></text>
      </g>
      <g
         transform="translate(6.4255952,7.9375)"
         id="g4599">
        <g
           transform="matrix(0.91965611,0,0,1,-9.8516338,-6.2366075)"
           style="fill:#0055d4"
           id="g4589">
          <path
             inkscape:connector-curvature="0"
             id="path4575"
             d="m 65.28409,80.534338 c -3.847783,-0.398019 -6.896456,-1.183174 -10.281368,-2.647864 -0.76941,-0.332934 -1.877301,-0.85776 -2.461981,-1.166283 -0.584679,-0.308523 -1.866818,-0.984697 -2.849196,-1.50261 -2.944123,-1.552148 -5.771647,-2.558777 -8.689345,-3.0935 -1.955387,-0.358362 -3.111874,-0.459312 -5.261881,-0.459312 -2.617924,0 -4.672074,0.243462 -7.192846,0.852513 -2.090174,0.505011 -4.981821,1.547027 -7.045603,2.538909 -0.556234,0.267334 -1.099318,0.473111 -1.206853,0.457282 -0.185774,-0.02735 -0.196835,-0.108259 -0.221964,-1.62356 -0.02414,-1.45542 -0.01057,-1.609547 0.155257,-1.763768 0.530472,-0.49335 4.582542,-2.061716 6.919213,-2.678104 2.868553,-0.756692 5.312769,-1.076599 8.254878,-1.080425 3.890909,-0.0051 7.238241,0.56513 10.89586,1.85602 1.950717,0.68847 3.205626,1.254917 5.870775,2.649981 2.864182,1.499246 4.158798,2.08251 5.979958,2.694152 2.316329,0.777946 4.168678,1.204115 6.36271,1.463868 1.367843,0.16194 4.418231,0.16284 5.84117,0.0017 2.906801,-0.329128 6.094443,-1.194493 8.811109,-2.391993 0.514559,-0.226816 1.012652,-0.397188 1.106873,-0.378602 0.153462,0.03027 0.174197,0.188739 0.198988,1.520826 0.01522,0.81787 0.0049,1.581965 -0.02297,1.697991 -0.05713,0.23792 -0.899395,0.638356 -2.756326,1.310429 -3.379172,1.223013 -6.016379,1.701105 -9.654827,1.750295 -1.300988,0.01759 -2.53922,0.014 -2.751626,-0.008 z M 11.558375,72.167386 c -0.131964,-0.253397 -0.132114,-3.529675 -1.74e-4,-3.783028 0.153953,-0.29562 2.391378,-1.796893 4.857974,-3.259615 9.773603,-5.795865 19.819377,-7.197372 29.123794,-4.063122 2.356917,0.793942 3.818165,1.454538 6.661831,3.011659 2.159208,1.182328 3.746777,1.912464 5.58718,2.569591 8.231532,2.939118 16.732536,1.936442 24.487606,-2.888263 2.901681,-1.805239 3.514857,-2.216842 4.955248,-3.326274 0.832417,-0.641153 1.563147,-1.165772 1.623842,-1.16582 0.196482,-1.99e-4 0.227563,0.284479 0.227563,2.084007 0,1.739756 -0.0041,1.775242 -0.239487,2.062696 -0.131718,0.160869 -0.968067,0.803722 -1.858554,1.428564 -5.373565,3.770553 -10.34525,5.896291 -15.763389,6.739934 -1.292837,0.201304 -1.851262,0.23279 -4.103302,0.231355 -2.232625,-0.0014 -2.821608,-0.03487 -4.103301,-0.233016 -4.144985,-0.640803 -7.891974,-1.995698 -12.116808,-4.381386 -2.45556,-1.38661 -3.992046,-2.104464 -5.927486,-2.76935 -6.874266,-2.361536 -13.961664,-2.044206 -21.347401,0.955801 -4.107232,1.668313 -8.436756,4.183468 -11.392695,6.618371 -0.504181,0.41531 -0.539058,0.424018 -0.672441,0.167896 z M 63.401399,62.593685 C 59.694438,62.107551 56.122524,60.879718 52.763482,58.936938 48.04873,56.210055 44.224096,54.832193 39.439889,54.136984 c -1.493295,-0.216995 -6.064784,-0.249863 -7.609774,-0.05471 -3.57703,0.451821 -7.127851,1.440559 -10.53766,2.934245 -0.826663,0.362124 -1.571702,0.658408 -1.655641,0.658408 -0.227637,0 -1.20689,-1.579007 -1.622405,-2.616066 -0.461021,-1.150634 -0.780398,-2.7285 -0.74296,-3.670539 l 0.02815,-0.708317 14.264792,-0.02513 14.264794,-0.02513 0.02435,-22.001431 0.02435,-22.0014308 1.435146,-0.027522 c 0.976122,-0.018719 1.477928,0.00897 1.568909,0.086563 0.113247,0.096587 0.133764,3.4753038 0.133764,22.0289528 v 21.914868 l 14.265007,0.02513 14.265007,0.02513 0.03038,0.545703 c 0.04063,0.729794 -0.221024,2.289315 -0.553351,3.298056 -1.339544,4.066036 -4.599886,7.049277 -8.713069,7.972533 -0.963923,0.216365 -3.601923,0.268708 -4.908285,0.09739 z M 17.372011,47.984996 c -0.351364,-0.145701 0.127772,-3.909828 0.90728,-7.127649 1.597056,-6.592673 4.970279,-14.206777 9.142889,-20.637501 3.740139,-5.76421 8.189392,-10.166831 12.591274,-12.4593035 1.339217,-0.6974563 2.969612,-1.2709007 3.133761,-1.1022109 0.08497,0.087318 0.0035,0.6003064 -0.3375,2.1254155 -1.045902,4.6776299 -1.742606,9.5046759 -2.158989,14.9583649 -0.203251,2.66212 -0.234159,9.743915 -0.05196,11.90625 0.441964,5.245389 1.175311,8.840944 2.345303,11.498886 0.212954,0.483781 0.253473,0.666374 0.170637,0.768945 -0.09048,0.112036 -2.240286,0.133205 -12.865317,0.12668 -7.016179,-0.0043 -12.810996,-0.03035 -12.877373,-0.05788 z m 34.269809,-0.05335 c -0.08895,-0.09141 -0.115858,-3.180102 -0.115858,-13.298427 0,-11.999876 0.01385,-13.184826 0.154768,-13.240397 0.221286,-0.08727 25.870534,26.27143 25.785618,26.498838 -0.05407,0.144814 -1.207132,0.159048 -12.88403,0.159048 -9.845989,0 -12.851549,-0.02765 -12.940498,-0.119062 z"
             style="fill:#0055d4;stroke-width:0.0978744" />
          <path
             inkscape:connector-curvature="0"
             id="path4577"
             d="M 64.366882,80.34556 C 61.458207,80.0123 58.71565,79.309478 55.894898,78.174488 54.076382,77.442767 53.344759,77.088635 50.994946,75.80273 46.358163,73.265309 42.705855,72.075548 38.264682,71.65577 c -1.687927,-0.159542 -5.033213,-0.06252 -6.724212,0.19502 -3.363975,0.512332 -6.589798,1.506131 -9.85175,3.035087 -0.718976,0.337001 -1.359815,0.594716 -1.424087,0.572699 -0.08491,-0.02909 -0.116859,-0.471151 -0.116859,-1.616975 0,-1.855724 -0.169589,-1.608029 1.656372,-2.419235 3.286592,-1.460111 6.853847,-2.431376 10.460436,-2.84809 1.38051,-0.159508 5.112862,-0.160475 6.468734,-0.0017 3.537905,0.414357 6.82698,1.300406 9.958604,2.682761 0.735649,0.324728 2.575775,1.231485 4.089169,2.015016 3.63311,1.880972 6.007871,2.776341 8.978989,3.385394 2.283063,0.468008 2.815229,0.515684 5.744623,0.514647 2.442569,-8.93e-4 2.974619,-0.02976 4.168939,-0.226431 2.478539,-0.40814 4.692876,-1.056069 7.253382,-2.122388 0.653513,-0.272154 1.252014,-0.469663 1.330001,-0.438909 0.118003,0.04654 0.137333,0.318498 0.115197,1.620756 l -0.0266,1.56484 -0.627564,0.313435 c -2.237346,1.117436 -6.221337,2.186887 -9.351275,2.510228 -1.330501,0.137448 -4.617171,0.112038 -5.9999,-0.04639 z M 11.554978,70.383041 c 0,-0.977803 0.02741,-1.851225 0.06091,-1.940937 0.11751,-0.314698 3.617403,-2.584808 6.115351,-3.966557 9.219343,-5.099712 18.455195,-6.287253 27.277716,-3.507354 1.989176,0.626772 3.601935,1.318915 5.937719,2.548276 4.383406,2.307056 5.900634,2.981982 8.28154,3.683973 2.953,0.87067 4.751479,1.13099 7.842021,1.135095 2.461554,0.0033 3.257673,-0.07031 5.358429,-0.495211 2.921173,-0.590844 6.484173,-1.977228 9.178398,-3.57137 1.722755,-1.019333 4.654704,-2.975375 5.789522,-3.862464 0.737177,-0.576252 1.385662,-1.032236 1.441078,-1.013299 0.06394,0.02185 0.11037,0.715298 0.127063,1.897584 l 0.02631,1.863153 -0.339886,0.32942 c -0.186937,0.18118 -1.018409,0.804302 -1.847715,1.384714 -5.432616,3.80216 -10.461859,5.89153 -16.16091,6.713953 -1.419174,0.204799 -5.91953,0.17428 -7.385942,-0.05009 -4.445441,-0.680174 -7.80429,-1.890376 -12.467193,-4.491962 -2.218328,-1.237679 -3.829276,-1.990872 -5.604406,-2.620321 -8.114169,-2.877231 -16.55561,-1.976046 -25.56822,2.729595 -2.777068,1.449956 -5.556042,3.22248 -7.168518,4.572325 -0.888747,0.743992 -0.893262,0.737225 -0.893262,-1.338524 z m 51.60505,-7.902587 c -3.693322,-0.516278 -7.080225,-1.707665 -10.489905,-3.689961 -4.5989,-2.673675 -8.532713,-4.071699 -13.357518,-4.747078 -1.529882,-0.214155 -5.841546,-0.249723 -7.337668,-0.06053 -3.783529,0.478446 -7.179657,1.416164 -10.717995,2.959389 -1.124001,0.490227 -1.563526,0.639269 -1.678078,0.569034 -0.259302,-0.158988 -1.14363,-1.604273 -1.461051,-2.387845 -0.394081,-0.972806 -0.637243,-1.975624 -0.765366,-3.156422 -0.07759,-0.715032 -0.07624,-0.999861 0.0052,-1.100712 0.09201,-0.113928 2.420484,-0.140147 14.315055,-0.161192 l 14.205172,-0.02513 0.04827,-21.976953 0.04827,-21.976954 h 1.448224 1.448224 l 0.04827,21.976954 0.04827,21.976953 14.240869,0.04961 14.24087,0.04961 0.029,0.572134 c 0.03661,0.722289 -0.201955,2.159414 -0.521047,3.138763 -0.992224,3.045302 -3.227728,5.633631 -6.050688,7.005658 -1.038056,0.50452 -2.24699,0.883335 -3.298851,1.033682 -0.996547,0.142441 -3.256111,0.117544 -4.447561,-0.04901 z M 17.365178,47.824087 c -0.184899,-0.228954 0.116832,-2.78857 0.622419,-5.280021 1.855419,-9.143229 7.364427,-20.455984 13.383771,-27.483595 2.695983,-3.147572 5.75933,-5.7079583 8.601963,-7.1896361 1.335253,-0.6959799 2.926703,-1.2680842 3.0824,-1.1080806 0.07635,0.078468 0.0063,0.5411051 -0.253408,1.6730103 -1.074166,4.6819674 -1.855264,10.1102664 -2.245319,15.6040034 -0.193114,2.719922 -0.222317,9.070833 -0.05201,11.310938 0.398238,5.238169 1.157101,9.071473 2.324514,11.741997 0.163278,0.373509 0.272556,0.719534 0.24284,0.768945 -0.03182,0.05291 -5.30574,0.08984 -12.829155,0.08984 -10.282932,0 -12.795198,-0.02485 -12.878015,-0.127401 z m 34.321698,0.06125 c -0.118987,-0.122277 -0.07576,-26.307092 0.04355,-26.382871 0.144572,-0.09182 25.718575,26.189546 25.629224,26.338117 -0.07374,0.122613 -25.553788,0.167033 -25.672774,0.04475 z"
             style="fill:#0055d4;stroke-width:0.0978744" />
          <path
             inkscape:connector-curvature="0"
             id="path4579"
             d="m 65.86338,80.429843 c -3.14319,-0.260749 -5.269332,-0.67578 -7.842723,-1.530932 -2.429078,-0.807195 -4.18555,-1.593099 -6.977437,-3.121932 -3.96737,-2.172527 -6.828881,-3.230981 -10.429538,-3.857821 -6.190415,-1.077692 -12.4046,-0.103946 -19.090905,2.991494 -0.976672,0.452153 -1.216065,0.529584 -1.286052,0.415976 -0.09469,-0.153708 -0.119783,-2.591059 -0.03021,-2.93423 0.09947,-0.381088 3.567728,-1.840309 6.16862,-2.595362 2.863483,-0.831284 5.191623,-1.192818 8.219498,-1.276394 2.412612,-0.06659 4.151147,0.04982 6.300522,0.421896 3.818781,0.661062 6.699079,1.706954 11.417235,4.145818 3.710329,1.917908 5.265477,2.553275 8.047736,3.287958 6.172599,1.629936 12.382757,1.125911 18.572698,-1.507384 1.03582,-0.440654 1.307092,-0.522196 1.374334,-0.413115 0.09317,0.15115 0.11635,2.592023 0.02783,2.931174 -0.06689,0.256285 -0.969033,0.677139 -2.934094,1.368771 -3.708903,1.305401 -8.173239,1.953173 -11.537518,1.674083 z m -54.189841,-10.16626 0.02626,-1.920185 0.675838,-0.479692 c 3.70916,-2.632666 8.15439,-4.978517 11.971986,-6.317896 3.632437,-1.274416 6.656569,-1.84833 10.2942,-1.953611 4.031015,-0.116668 7.525704,0.422849 11.29148,1.743197 2.27572,0.797908 3.462813,1.348172 6.55814,3.039953 6.894485,3.768247 13.523681,4.900656 20.223096,3.454542 2.038252,-0.439971 4.248519,-1.193688 6.279405,-2.141323 2.529581,-1.180332 6.487721,-3.671235 8.896315,-5.598552 0.432443,-0.346034 0.834325,-0.629153 0.893071,-0.629153 0.07429,0 0.106811,0.571694 0.106811,1.877425 v 1.877424 l -0.406347,0.35744 c -0.692148,0.60884 -3.917493,2.773777 -5.338275,3.583191 -9.904627,5.642633 -19.659329,6.070476 -29.609079,1.298663 -0.513832,-0.246431 -1.665171,-0.860615 -2.558529,-1.364854 -4.224879,-2.384656 -7.269555,-3.478987 -11.47221,-4.123391 -1.786823,-0.273978 -5.974378,-0.246086 -7.868684,0.05241 -3.385826,0.533526 -6.335525,1.425893 -9.703101,2.935464 -3.100001,1.389626 -6.865603,3.632313 -9.207089,5.483486 -0.444064,0.351076 -0.868626,0.662468 -0.94347,0.691982 -0.11473,0.04524 -0.13196,-0.247593 -0.109819,-1.866522 z m 52.693343,-7.696262 c -4.223162,-0.459718 -7.80292,-1.603838 -11.299797,-3.611508 -4.598101,-2.63992 -8.275554,-4.051674 -12.35453,-4.742836 -3.656749,-0.619619 -7.827714,-0.565964 -11.436638,0.147118 -2.681997,0.529933 -5.730946,1.50046 -8.242325,2.623659 -0.710602,0.317812 -1.351082,0.554543 -1.423288,0.526068 -0.07221,-0.02847 -0.35972,-0.415972 -0.638923,-0.861107 -0.889913,-1.418803 -1.47865,-3.215816 -1.592839,-4.861857 -0.04836,-0.697052 -0.03295,-0.89569 0.07491,-0.965864 0.07776,-0.05059 6.190352,-0.08899 14.304248,-0.08986 l 14.168459,-0.0015 V 28.822112 c 0,-16.906875 0.02645,-21.9346777 0.115858,-22.0265629 0.160855,-0.1653048 2.600425,-0.1653048 2.76128,0 0.08941,0.091885 0.115858,5.1196879 0.115858,22.0265629 V 50.729613 H 63.09993 c 12.733108,0 14.193541,0.01581 14.305842,0.154866 0.169393,0.209752 -0.0221,1.915238 -0.347982,3.099169 -0.315646,1.146753 -1.16655,2.904185 -1.871873,3.866112 -2.479391,3.381408 -6.59754,5.177097 -10.819038,4.717561 z M 17.453609,47.860203 c -0.166835,-0.108544 -0.101446,-1.197179 0.186085,-3.098097 0.784074,-5.183639 2.620706,-10.748961 5.49617,-16.654369 3.143619,-6.456125 6.420975,-11.287383 10.301013,-15.185058 1.569248,-1.576382 2.918872,-2.706641 4.524053,-3.7887216 2.063227,-1.3908581 4.882692,-2.6487352 5.105728,-2.277872 0.02659,0.044209 -0.05578,0.5018555 -0.183029,1.0169922 -1.014885,4.1083584 -1.877045,9.8041034 -2.31948,15.3233314 -0.209312,2.611086 -0.291988,8.731842 -0.151442,11.211719 0.307941,5.433518 1.063806,9.545631 2.30422,12.535591 0.28326,0.682781 0.319591,0.843276 0.207414,0.916254 -0.179649,0.116874 -25.291099,0.117101 -25.470732,1.99e-4 z m 34.33786,-0.01588 c -0.159557,-0.0955 -0.168959,-0.826588 -0.168959,-13.137611 0,-9.499462 0.02928,-13.055077 0.107916,-13.105021 0.0642,-0.04078 5.275639,5.242975 12.865057,13.04357 10.117447,10.398965 12.727174,13.131878 12.612319,13.20765 -0.20482,0.135121 -25.190345,0.126678 -25.416333,-0.0086 z"
             style="fill:#0055d4;stroke-width:0.0978744" />
          <path
             inkscape:connector-curvature="0"
             id="path4581"
             d="m 65.090994,80.337533 c -0.159305,-0.02235 -0.702389,-0.08812 -1.206854,-0.14615 -2.215735,-0.254872 -5.029381,-0.971955 -7.417349,-1.890377 -1.853569,-0.712891 -3.139356,-1.322814 -5.440146,-2.580575 -4.12698,-2.256074 -7.164393,-3.338293 -11.181812,-3.984041 -1.782144,-0.286455 -6.197174,-0.308549 -7.966444,-0.03987 -3.593441,0.545706 -6.873194,1.538596 -10.175807,3.080555 -0.658249,0.307331 -1.255642,0.558783 -1.327538,0.558783 -0.104301,0 -0.130722,-0.310432 -0.130722,-1.535874 V 72.26411 l 0.362056,-0.189638 c 0.622888,-0.326256 2.348105,-1.062799 3.355052,-1.432365 2.458526,-0.902318 4.875171,-1.508718 7.446717,-1.868576 2.192559,-0.306824 5.989044,-0.306824 8.181603,0 4.417423,0.618167 7.572576,1.698566 12.660324,4.335192 4.028855,2.087875 6.295604,2.960135 9.376601,3.608181 2.082708,0.438068 3.679558,0.603329 5.829751,0.603329 3.871846,0 7.268221,-0.686532 11.072416,-2.238142 0.861948,-0.351561 1.612477,-0.639202 1.667841,-0.639202 0.06552,0 0.100663,0.536089 0.100663,1.535343 v 1.535343 l -0.295495,0.157033 c -1.07185,0.569606 -3.958937,1.557179 -5.83532,1.996061 -2.211993,0.517382 -3.399665,0.648255 -6.179089,0.680893 -1.433742,0.01684 -2.737144,0.01232 -2.896448,-0.01003 z M 11.651526,70.282794 c 0,-1.561475 0.02065,-1.800189 0.168959,-1.953473 0.212655,-0.219783 1.921885,-1.362493 3.499875,-2.339851 5.795676,-3.589662 11.185522,-5.565374 17.04077,-6.246497 1.356801,-0.157832 5.212392,-0.155543 6.468734,0.0038 4.878437,0.618895 8.440558,1.820291 13.32494,4.494103 4.574647,2.504255 8.389773,3.750264 12.694819,4.146088 4.73531,0.435386 9.794188,-0.555677 14.592884,-2.85883 2.21993,-1.065464 6.218665,-3.607807 8.32591,-5.293504 0.527094,-0.421651 0.995113,-0.743292 1.04004,-0.714758 0.04493,0.02853 0.08168,0.855434 0.08168,1.837556 v 1.785675 L 88.576356,63.4401 c -0.439869,0.416339 -2.785769,2.052478 -4.223987,2.946001 -4.662417,2.896625 -9.658049,4.687427 -14.426598,5.171553 -1.335547,0.135592 -4.268624,0.138173 -5.572802,0.0049 -4.525022,-0.462389 -8.744601,-1.892939 -13.443131,-4.557578 -1.776205,-1.007325 -2.964406,-1.597385 -4.380777,-2.175491 -8.171891,-3.33544 -16.813571,-2.764687 -25.940136,1.713256 -2.650192,1.300315 -5.620591,3.116305 -7.602499,4.647881 -0.619891,0.479039 -1.173837,0.87098 -1.23099,0.87098 -0.07032,0 -0.103915,-0.575024 -0.103915,-1.77885 z m 51.508502,-7.901559 c -3.666514,-0.512531 -7.089341,-1.711314 -10.38636,-3.637638 -4.725961,-2.761199 -9.039845,-4.26305 -13.943804,-4.854445 -1.378871,-0.166285 -5.492951,-0.167753 -6.806653,-0.0024 -3.815748,0.4802 -7.263427,1.425355 -10.742483,2.944971 -0.837168,0.365667 -1.582093,0.641199 -1.65539,0.612294 -0.213466,-0.08418 -1.087729,-1.522574 -1.412074,-2.323236 -0.163726,-0.404165 -0.382981,-1.077542 -0.487234,-1.496393 -0.213511,-0.857809 -0.419882,-2.54666 -0.329547,-2.696869 0.0389,-0.06467 4.944743,-0.09866 14.242836,-0.09866 13.923999,0 14.185329,-0.0035 14.283446,-0.191915 0.06803,-0.130623 0.09994,-7.165127 0.09994,-22.026563 V 6.7757053 h 1.39995 1.39995 V 28.683206 c 0,16.906875 0.02645,21.934677 0.115858,22.026563 0.08906,0.09152 3.397328,0.119062 14.303183,0.119062 h 14.187326 l -0.05549,0.967383 c -0.145179,2.530965 -1.366514,5.279754 -3.193956,7.188453 -1.722102,1.798677 -3.885139,2.969646 -6.277569,3.398391 -1.053872,0.188863 -3.384221,0.187967 -4.741933,-0.0018 z M 17.411738,47.709413 C 17.296811,47.401635 17.610541,44.932825 18.036615,42.792112 18.96661,38.11957 20.679901,33.228734 23.180648,28.107737 28.075609,18.083901 33.908641,11.11772 40.084057,7.9206033 41.228762,7.3279701 42.889708,6.6979735 43.002325,6.8137048 43.034204,6.8464657 42.880138,7.67649 42.659957,8.6582032 39.451337,22.96434 39.480567,39.64237 42.727295,47.07887 c 0.157782,0.361393 0.261409,0.683251 0.230282,0.715239 -0.03113,0.03199 -5.779672,0.05816 -12.774545,0.05816 -10.979492,0 -12.725243,-0.01953 -12.771294,-0.142856 z m 34.371686,0.07671 c -0.0354,-0.03638 -0.06437,-5.929974 -0.06437,-13.096876 0,-10.366386 0.02471,-13.030729 0.120824,-13.030729 0.157793,0 25.36792,25.907709 25.36792,26.069869 0,0.0984 -2.60809,0.123882 -12.680006,0.123882 -6.974004,0 -12.708972,-0.02977 -12.744372,-0.06615 z"
             style="fill:#0055d4;stroke-width:0.0978744" />
          <path
             inkscape:connector-curvature="0"
             id="path4583"
             d="m 65.718558,80.331492 c -2.844081,-0.275815 -4.292954,-0.531073 -6.413632,-1.129936 -2.716685,-0.767172 -4.990453,-1.735191 -8.203502,-3.492507 -2.34812,-1.28426 -4.112409,-2.093686 -5.887076,-2.700888 -7.55554,-2.585127 -15.249646,-2.0447 -23.321691,1.638099 -0.819216,0.37376 -1.525225,0.656864 -1.56891,0.629118 -0.04368,-0.02774 -0.07943,-0.694183 -0.07943,-1.480973 0,-1.685625 -0.162608,-1.463349 1.662138,-2.272052 4.442439,-1.968832 8.905238,-2.931241 13.592489,-2.931241 3.850899,0 7.074931,0.554375 10.737711,1.846359 1.991668,0.702526 3.420581,1.352125 6.20651,2.821541 4.96533,2.618923 8.674715,3.753112 13.347799,4.081254 4.303489,0.302189 9.219255,-0.61372 13.480767,-2.511746 0.471394,-0.209954 0.895,-0.35765 0.941346,-0.328215 0.14219,0.09031 0.104806,2.877334 -0.04026,3.001055 -0.218932,0.186723 -1.681516,0.794907 -3.001819,1.248242 -2.396298,0.822785 -4.803464,1.329228 -7.330271,1.542213 -1.141432,0.09621 -3.322713,0.117207 -4.122179,0.03968 z m -54.008641,-8.42736 c -0.07766,-0.207971 -0.07531,-3.154383 0.0027,-3.363241 0.11846,-0.31724 3.575002,-2.561031 6.069746,-3.940135 4.93854,-2.730043 10.036452,-4.383283 14.916708,-4.837451 1.420494,-0.132194 4.267157,-0.132708 5.696348,-0.001 3.916585,0.360859 8.249211,1.647812 11.917515,3.53995 0.481322,0.248269 1.467126,0.779117 2.190676,1.179661 3.867595,2.141032 7.809817,3.444342 11.815019,3.906079 1.298604,0.149708 4.453362,0.123698 5.886067,-0.04853 3.8287,-0.460254 7.612432,-1.749027 11.202977,-3.815833 1.947183,-1.120847 4.564041,-2.845387 5.968497,-3.93331 0.733798,-0.568419 1.374638,-1.007791 1.424087,-0.976384 0.04984,0.03165 0.08991,0.813063 0.08991,1.753328 v 1.696226 L 88.521666,63.4202 c -0.535507,0.518369 -3.807874,2.734427 -5.347996,3.621683 -4.106837,2.365924 -8.135787,3.777929 -12.531126,4.391719 -1.516707,0.211801 -5.183182,0.237808 -6.710105,0.0476 -4.456225,-0.555123 -8.414812,-1.925937 -12.937468,-4.480101 -4.222547,-2.384677 -7.441002,-3.537319 -11.537518,-4.131989 -1.68244,-0.244232 -5.747238,-0.245517 -7.385943,-0.0023 -3.621573,0.537436 -6.639015,1.429983 -10.185842,3.012928 -2.764872,1.233959 -6.525432,3.443318 -8.706541,5.115164 -0.707413,0.54224 -1.314238,1.003841 -1.3485,1.02578 -0.03426,0.02194 -0.08857,-0.03048 -0.120685,-0.116483 z m 52.512142,-9.427415 c -0.159304,-0.0243 -0.767558,-0.112267 -1.351675,-0.195471 -3.499921,-0.498545 -6.808985,-1.674512 -10.106622,-3.591664 -4.392794,-2.553846 -8.263445,-3.973101 -12.823593,-4.702038 -1.22873,-0.196412 -1.77191,-0.224117 -4.44122,-0.226523 -2.39871,-0.0022 -3.296256,0.03429 -4.248124,0.172527 -3.547306,0.515163 -6.938803,1.502897 -10.324504,3.006889 -1.398762,0.621356 -1.287527,0.650086 -1.994178,-0.51505 -0.860425,-1.41868 -1.413378,-3.256114 -1.430415,-4.753196 l -0.009,-0.79375 14.24087,-0.04961 14.24087,-0.04961 0.04827,-21.976954 0.04827,-21.9769533 h 1.351676 1.351676 l 0.04827,21.9769533 0.04827,21.976954 14.24087,0.04961 14.24087,0.04961 0.03166,0.284726 c 0.0503,0.452279 -0.163246,1.876699 -0.422602,2.818915 -0.317389,1.153036 -1.167518,2.906468 -1.880808,3.879259 -1.64189,2.239222 -4.176926,3.871141 -6.893032,4.437362 -0.675664,0.140854 -3.406039,0.263414 -3.965788,0.178014 z M 17.473807,47.688632 c -0.08689,-0.232695 0.135533,-2.328363 0.414386,-3.904332 1.089657,-6.158337 3.773581,-13.230625 7.549505,-19.89336 4.142307,-7.309228 8.814305,-12.538956 13.828336,-15.479124 1.076031,-0.6309713 2.857416,-1.4117217 3.444362,-1.5096045 0.30278,-0.050493 0.335074,-0.035585 0.284876,0.1315145 -0.150164,0.4998787 -0.662277,2.8591498 -0.97776,4.504479 -2.591545,13.515627 -2.343908,28.282424 0.592914,35.355877 0.177691,0.427977 0.298713,0.81865 0.268935,0.868164 -0.03196,0.05314 -5.234422,0.09002 -12.699295,0.09002 -11.659663,0 -12.649918,-0.01275 -12.706259,-0.163637 z m 34.365937,0.09793 c -0.09569,-0.03968 -0.120686,-2.739587 -0.120686,-13.033578 0,-7.140942 0.03519,-13.00588 0.0782,-13.033195 0.106339,-0.06754 25.436172,25.97386 25.350137,26.062275 -0.07652,0.07863 -25.118135,0.08308 -25.307646,0.0045 z"
             style="fill:#0055d4;stroke-width:0.0978744" />
          <path
             inkscape:connector-curvature="0"
             id="path4585"
             d="m 64.216728,80.147445 c -4.5855,-0.541985 -8.412475,-1.891983 -13.89762,-4.902503 -3.177733,-1.744099 -6.400795,-2.897124 -9.703101,-3.471211 -3.390295,-0.589383 -7.254167,-0.520685 -10.813406,0.192258 -2.621353,0.525077 -5.775721,1.596024 -8.43345,2.863262 -0.469926,0.224066 -0.893531,0.407393 -0.941346,0.407393 -0.04781,0 -0.08694,-0.663993 -0.08694,-1.475541 V 72.28556 l 1.013207,-0.464766 c 7.801982,-3.578838 15.863375,-4.16954 23.702101,-1.736782 2.077506,0.644756 4.039429,1.496176 7.169735,3.111463 4.725414,2.438388 7.259054,3.328025 11.368583,3.991852 1.593013,0.257325 6.133535,0.258613 7.723861,0.0022 2.678415,-0.431863 4.802895,-1.024512 7.203004,-2.009362 0.855212,-0.350925 1.582945,-0.638044 1.617184,-0.638044 0.03424,0 0.06225,0.665261 0.06225,1.478358 v 1.478358 l -0.844797,0.364422 c -2.750446,1.186465 -5.977817,2.034783 -8.850936,2.326475 -1.38656,0.14077 -4.941865,0.116866 -6.288337,-0.04228 z M 11.748074,70.234435 V 68.506444 L 12.11013,68.21387 c 0.452233,-0.365446 1.420961,-1.004112 3.161956,-2.084622 5.74286,-3.564181 10.899744,-5.499473 16.606303,-6.232069 1.665979,-0.213875 5.399515,-0.243725 6.951475,-0.05558 4.712883,0.571352 8.319218,1.782146 13.178839,4.424676 4.240214,2.305713 7.399022,3.434032 11.296148,4.03496 1.952856,0.301126 5.475245,0.327029 7.289394,0.05361 4.593822,-0.692371 8.466393,-2.201234 12.84092,-5.003186 2.065724,-1.323128 2.962745,-1.940753 4.045909,-2.785723 0.584969,-0.456331 1.119593,-0.851783 1.188051,-0.878779 0.09867,-0.03891 0.124469,0.31062 0.124469,1.686314 v 1.735398 l -0.398372,0.36986 c -0.610524,0.566828 -3.929211,2.783513 -5.484668,3.663431 -3.677692,2.080462 -7.716767,3.537183 -11.453924,4.130938 -1.912084,0.303791 -5.54264,0.376583 -7.475941,0.149893 -4.427797,-0.519184 -8.45725,-1.907263 -13.002267,-4.479061 -2.689298,-1.52174 -4.532368,-2.348334 -6.838403,-3.066939 -2.882438,-0.898222 -5.240725,-1.251831 -8.351425,-1.252238 -3.680512,-4.96e-4 -6.949825,0.583092 -10.691783,1.908484 -4.136654,1.465191 -9.100594,4.175298 -12.43158,6.787131 -0.450366,0.353134 -0.840967,0.642061 -0.868002,0.642061 -0.02703,0 -0.04915,-0.777597 -0.04915,-1.727991 z M 63.787592,62.373201 C 63.654838,62.35274 63.068307,62.265013 62.48419,62.17825 59.344808,61.71194 55.926248,60.468638 52.780233,58.648999 48.093902,55.93845 43.980184,54.480302 39.216057,53.841042 c -1.52007,-0.203966 -5.679666,-0.235435 -7.144572,-0.05405 -3.813293,0.472159 -7.319325,1.429598 -10.789012,2.9463 -0.80994,0.354049 -1.52359,0.643782 -1.585889,0.643851 -0.154939,1.98e-4 -0.93994,-1.232087 -1.289287,-2.023867 -0.157287,-0.356482 -0.390857,-1.020084 -0.519045,-1.474671 -0.246721,-0.874929 -0.497823,-2.681287 -0.396213,-2.850242 0.04021,-0.06686 4.756331,-0.100312 14.142781,-0.100312 7.745349,0 14.151176,-0.0271 14.235171,-0.06022 0.138619,-0.05466 0.152719,-2.073831 0.152719,-21.869619 0,-11.995168 0.02637,-21.8800202 0.0586,-21.966339 0.0494,-0.1323014 0.261628,-0.1569429 1.351676,-0.1569429 h 1.293072 V 28.745572 c 0,19.750115 0.01471,21.885765 0.151719,22.026563 0.136546,0.140323 1.566996,0.155915 14.303728,0.155915 h 14.15201 l -0.06026,0.967383 c -0.07781,1.249115 -0.435706,2.591636 -1.034529,3.880627 -1.598648,3.441163 -4.616031,5.811078 -8.286093,6.50807 -0.74141,0.140804 -3.45313,0.198794 -4.165047,0.08907 z M 17.498483,47.663453 c -0.153473,-0.255192 0.395796,-4.006036 0.914405,-6.244278 2.175674,-9.389909 7.931748,-20.642379 13.889531,-27.152454 2.605063,-2.846555 5.722315,-5.2953145 8.301258,-6.5210604 0.889587,-0.4228122 2.227503,-0.9093973 2.298858,-0.8360691 0.02497,0.02566 -0.129378,0.821758 -0.342993,1.7691073 -2.362036,10.4752742 -3.024918,22.8226962 -1.696755,31.6052712 0.320146,2.116982 0.972969,4.759364 1.527707,6.183584 0.245368,0.62995 0.446123,1.176893 0.446123,1.21543 0,0.105543 -25.274631,0.08606 -25.338134,-0.01953 z M 51.815607,34.731144 V 21.709238 l 3.21023,3.287773 c 1.765626,1.808276 7.457147,7.629727 12.647823,12.936562 5.190676,5.306834 9.437593,9.687193 9.437593,9.734132 0,0.04721 -5.651055,0.08535 -12.647823,0.08535 H 51.815607 Z"
             style="fill:#0055d4;stroke-width:0.0978744" />
          <path
             inkscape:connector-curvature="0"
             id="path4587"
             d="M 66.008202,80.235156 C 60.693976,79.840434 56.438079,78.506481 51.083206,75.557117 46.820793,73.20946 43.599663,72.094134 39.36088,71.498225 c -1.719932,-0.241796 -5.474617,-0.239765 -7.241121,0.0039 -3.534716,0.487601 -6.818429,1.447065 -10.137568,2.962081 -0.716871,0.327215 -1.35771,0.617324 -1.424087,0.644685 -0.09313,0.03839 -0.120685,-0.269515 -0.120685,-1.348502 V 72.36214 l 0.555152,-0.287436 c 0.776547,-0.402065 3.055598,-1.314865 4.320535,-1.73045 5.410582,-1.777606 11.09275,-2.121716 16.558029,-1.002747 3.382456,0.692528 6.203602,1.758436 10.089294,3.812018 3.692928,1.951707 6.370096,3.005703 9.302531,3.662387 2.466662,0.552381 3.392711,0.648021 6.241741,0.644634 2.816652,-0.0033 3.899016,-0.119975 6.373397,-0.686748 1.361931,-0.311959 3.859753,-1.141776 5.183335,-1.721988 0.515033,-0.225773 0.960362,-0.410495 0.98962,-0.410495 0.02926,0 0.0532,0.638461 0.0532,1.418802 v 1.418802 l -1.378034,0.558014 c -2.488477,1.007671 -5.147706,1.699763 -7.705179,2.005352 -1.325209,0.158347 -4.060599,0.263583 -5.012835,0.192854 z M 11.844622,70.182191 v -1.682396 l 0.603427,-0.439956 c 1.662865,-1.212387 5.409065,-3.440962 7.437972,-4.42477 8.010146,-3.884085 15.855266,-4.850013 23.401407,-2.881293 2.915676,0.760675 4.810212,1.538231 8.576453,3.519955 3.179372,1.672925 4.780497,2.382121 6.903201,3.057681 2.856657,0.909143 5.30057,1.289147 8.303151,1.29106 3.737145,0.0024 6.961189,-0.645035 10.617058,-2.132002 2.728761,-1.10988 7.034366,-3.674513 9.84587,-5.864689 l 1.115611,-0.869067 0.02654,1.653792 c 0.03174,1.977688 0.182135,1.714882 -1.76166,3.078359 -3.71173,2.603596 -6.960708,4.297552 -10.493684,5.471213 -8.46231,2.811194 -16.636674,1.845965 -25.193738,-2.974877 -4.685291,-2.63958 -7.966215,-3.774643 -12.444641,-4.305331 -1.091593,-0.129352 -1.8997,-0.154086 -3.668834,-0.112295 -3.115805,0.0736 -5.260152,0.415123 -8.299652,1.321846 -4.626428,1.380124 -10.323227,4.332813 -14.152421,7.335292 l -0.816061,0.639875 z M 64.559978,62.369179 C 63.56186,62.292038 61.31055,61.91441 60.2468,61.645698 57.365148,60.91777 55.619609,60.163703 51.652598,57.933025 47.658015,55.686844 43.431811,54.286709 39.022961,53.748844 c -1.616332,-0.197187 -5.301257,-0.226046 -6.806653,-0.05331 -3.758307,0.431251 -7.512075,1.451527 -11.031959,2.99849 -0.730872,0.321213 -1.384219,0.584023 -1.451884,0.584023 -0.164716,0 -0.873774,-1.121663 -1.271274,-2.011035 -0.514866,-1.15197 -1.00295,-3.336424 -0.904874,-4.049835 l 0.03293,-0.239521 14.24087,-0.04961 14.240869,-0.04961 0.04827,-21.976954 0.04827,-21.9769535 h 1.255127 1.255128 l 0.04827,21.9769535 0.04827,21.976954 14.208696,0.04961 c 7.814783,0.02728 14.234934,0.07658 14.267003,0.109539 0.108352,0.111366 -0.150436,1.993185 -0.391822,2.849199 -0.356237,1.2633 -0.74389,2.152527 -1.376914,3.158464 -1.931911,3.069994 -5.080739,4.986081 -8.700711,5.294451 -1.09156,0.09298 -1.353824,0.09647 -2.22061,0.02948 z M 17.54097,47.47959 c 0,-0.47048 0.31859,-2.89838 0.530466,-4.042556 1.656275,-8.944251 6.785476,-19.944701 12.745434,-27.334766 0.976188,-1.210427 3.132392,-3.474223 4.247612,-4.459562 1.795455,-1.586354 3.722743,-2.9172932 5.427916,-3.7483911 0.913839,-0.4454032 2.249369,-0.9514995 2.319826,-0.8790934 0.02176,0.022358 -0.114947,0.7254749 -0.303787,1.5624816 -1.063558,4.7140799 -1.777853,9.6386069 -2.199572,15.1644089 -0.170269,2.231036 -0.170547,10.572919 -3.86e-4,12.501563 0.383189,4.343945 1.086581,7.92258 2.008682,10.219531 0.186209,0.463848 0.362615,0.921494 0.392012,1.016992 0.05072,0.164759 -0.591071,0.173633 -12.557362,0.173633 -11.962724,0 -12.610841,-0.009 -12.610841,-0.174241 z m 34.339002,0.108095 c -0.09225,-0.09481 -0.07988,-25.510725 0.01245,-25.569366 0.05331,-0.03386 24.142844,24.604329 24.991886,25.561098 0.08156,0.09191 -24.914902,0.100172 -25.004332,0.0083 z"
             style="fill:#0055d4;stroke-width:0.0978744" />
        </g>
        <text
           transform="scale(0.95711062,1.0448113)"
           id="text4593"
           y="24.109528"
           x="40.803062"
           style="font-style:normal;font-weight:normal;font-size:34.52674866px;line-height:1.25;font-family:sans-serif;letter-spacing:0px;word-spacing:0px;fill:#0055d4;fill-opacity:1;stroke:none;stroke-width:0.86316866"
           xml:space="preserve"><tspan
             style="font-style:normal;font-variant:normal;font-weight:normal;font-stretch:normal;font-family:'Freestyle Script';-inkscape-font-specification:'Freestyle Script';fill:#0055d4;stroke-width:0.86316866"
             y="24.109528"
             x="40.803062"
             id="tspan4591"
             sodipodi:role="line">Travel</tspan></text>
        <text
           transform="scale(1.0311787,0.96976402)"
           id="text4597"
           y="58.871964"
           x="68.419907"
           style="font-style:normal;font-weight:normal;font-size:47.37198257px;line-height:1.25;font-family:sans-serif;letter-spacing:0px;word-spacing:0px;fill:#0055d4;fill-opacity:1;stroke:none;stroke-width:1.18429947"
           xml:space="preserve"><tspan
             style="font-style:normal;font-variant:normal;font-weight:normal;font-stretch:normal;font-family:'Freestyle Script';-inkscape-font-specification:'Freestyle Script';fill:#0055d4;stroke-width:1.18429947"
             y="58.871964"
             x="68.419907"
             id="tspan4595"
             sodipodi:role="line">Blog</tspan></text>
      </g>
    </g>
  </g>
</svg>
